<svg viewBox="0 0 84.14 79.04" xmlns="http://www.w3.org/2000/svg"><path d="m42.83 73.41c-3.26 4.96-9.67 6.96-14.91 4.65-2.01-.89-3.65-2.29-4.97-4.05-.27-.36-.34-.67-.84-.03-3.11 3.98-7.26 5.78-12.22 4.79-5.14-1.03-8.45-4.36-9.59-9.48-1.1-4.95.88-9.78 5.19-12.61-.9-.76-1.81-1.5-2.58-2.38-4.63-5.25-3.57-13.78 2.23-17.68.54-.37.35-.52-.02-.8-2.37-1.8-4.09-4.06-4.75-7.03-.96-4.36.16-8.12 3.25-11.33 1.64-1.71 3.68-2.68 5.93-3.24.43-.11.69-.3.92-.67 2.02-3.28 4.86-5.36 8.75-5.84.55-.07.82-.35 1.04-.82 1.68-3.56 4.5-5.8 8.29-6.59 4.95-1.04 9.04.64 12.2 4.57.54.67.51.69 1.02-.01 3.41-4.67 10.16-6.24 15.24-3.51 1.68.9 3.09 2.16 4.19 3.73.28.4.42.51.78.02 2.75-3.69 6.48-5.5 11.05-5.01 5.17.55 8.69 3.48 10.39 8.4 1.75 5.06-.09 10.64-4.42 13.68-.44.31-.34.42.01.67 6.74 4.86 6.77 14.72.05 19.58-.52.38-.41.51.03.82 3.98 2.83 6.03 8.3 4.58 12.96-1.51 4.85-4.8 7.91-9.94 8.74-.61.1-.96.32-1.27.92-1.67 3.23-4.19 5.49-7.82 6.32-.6.14-.98.41-1.31.96-1.76 2.91-4.32 4.85-7.64 5.57-4.46.96-8.34-.29-11.49-3.62-.48-.51-.89-1.07-1.38-1.67zm-22.35-26.95c.23-4.39-3.76-8.33-8.28-8.31-4.51.02-8.24 4.03-8.19 8.32.06 4.82 4.24 8.24 8.1 8.27s8.61-3.44 8.37-8.28zm0 20.17c.09-4.33-3.7-8.09-8.01-8.13-4.8-.04-8.51 3.74-8.46 8.5.04 4.35 3.9 8.1 8.41 8 4.49-.09 8.14-3.66 8.07-8.37zm12.08-28.44c-4.51-.26-8.14 4.11-8.11 8.41.03 4.25 3.73 8.19 8.16 8.14 4.26-.06 8.16-3.59 8.22-8.23.06-4.66-3.66-8.35-8.27-8.32zm20.46.01c-4.08-.26-8.15 3.64-8.21 8.22-.06 4.51 3.71 8.26 8.25 8.34 4.37.08 8.11-3.9 8.15-8.29.04-4.59-4.05-8.51-8.19-8.28zm.51 20.34c-4.37-.38-8.38 3.13-8.74 7.64-.33 4.16 3.14 8.28 7.18 8.76 5 .58 8.99-3.23 9.21-8.03.17-3.76-2.95-8.33-7.65-8.37zm-29.02 7.97c-.03 4.33 3.18 8.56 8.26 8.49 4.55-.06 7.93-3.62 8.07-8.09.15-4.57-3.62-8.29-8.15-8.43-4.5-.13-8.27 4.04-8.18 8.02zm-4.02-40.5c.1-4.84-3.96-8.21-8.35-8.14-5 .08-8.24 4.1-8.1 8.35.15 4.79 3.98 7.99 8.19 7.98 4.62 0 8.37-3.81 8.26-8.19zm32.55-8.18c-4.64.05-8.21 3.65-8.23 8.34-.02 4.76 4.15 8.16 8.16 8.1 4.65-.07 8.1-3.75 8.2-8.17.1-4.5-3.72-8.27-8.13-8.27zm-20.61 16.46c4.83.03 8.39-3.9 8.39-8.19 0-5.12-4.25-8.01-7.89-8.17-4.78-.21-8.49 3.89-8.46 8.11.03 4.26 3.55 8.26 7.97 8.25zm39.41-30.22c-2.76.02-5 1.1-6.71 3.28-.35.44-.26.63.21.81.75.28 1.52.51 2.22.91 4.07 2.34 6.06 5.94 6.32 10.55.03.53.15.6.61.43 4.23-1.5 6.21-5.55 5.42-9.59-.74-3.74-4.18-6.41-8.07-6.39zm8.28 49.24c-.02-3.83-2.53-7.5-6.58-8.38-.52-.11-.76 0-1 .47-.9 1.77-2.02 3.37-3.7 4.49-.59.39-.44.57.03.92 1.97 1.45 3.33 3.38 4.27 5.64.53 1.27.64 2.62.74 3.96.02.3-.03.58.43.42 3.21-1.11 5.74-4.11 5.79-7.5zm-.09-20.2c.06-.44-.03-.86-.05-1.28-.24-3.78-3.15-6.55-6.64-7.25-.39-.08-.59-.01-.77.36-.9 1.83-2.17 3.36-3.85 4.52-.43.29-.4.48 0 .76 3.33 2.35 4.95 5.63 5.15 9.65.03.69.27.66.77.46 3.27-1.31 5.05-3.73 5.4-7.21zm-10.17-12.72c.03-2.68-.73-4.44-1.99-6.01-2.68-3.34-8-4.06-11.62-.88-.16.14-.47.21-.41.48.05.24.35.28.55.34 2.83.83 4.96 2.6 6.6 4.98 1.44 2.09 2.18 4.44 2.15 7 0 .65.18.72.67.41.23-.14.5-.18.73-.36 2.19-1.66 3.28-3.86 3.32-5.96zm-.03 19.51c-.02-.15-.08-.47-.12-.79-.5-3.45-2.4-5.75-5.65-6.96-.41-.15-.62-.07-.86.29-.85 1.32-1.9 2.47-3.17 3.4-.36.26-.37.4-.02.64.64.45 1.21.99 1.74 1.56 2.24 2.4 3.34 5.25 3.4 8.52 0 .29-.26.64.07.84.34.2.6-.15.85-.32 2.51-1.65 3.6-4.08 3.76-7.18zm-10.2 16.76c.18.09.26.12.34.17.11.06.22.13.32.2 3.32 2.58 4.9 6 4.85 10.18 0 .19-.11.43.09.55.21.13.37-.08.53-.18 2.61-1.59 3.93-3.98 4.08-6.96.17-3.38-2.29-6.7-5.64-7.93-.48-.18-.76-.13-1.06.31-.94 1.37-2.01 2.63-3.51 3.65zm-1.34-48.94c-.41-.51-.77-1.11-1.26-1.55-3.72-3.3-9.29-2.69-12.28 1.3-.37.49-.09.58.28.7 2.54.82 4.64 2.24 6.15 4.48.2.29.35.43.64 0 .82-1.22 1.89-2.2 3.1-3.05.91-.64 1.97-.99 2.95-1.49.16-.08.41-.1.42-.39zm-27.48-3.66c-2.52-.09-4.56 1.26-6.28 3.29-.43.5-.25.67.27.84 2.5.82 4.43 2.41 5.97 4.5.19.25.28.35.52.01.5-.72 1.09-1.38 1.73-1.98 1.29-1.21 2.81-2.01 4.47-2.57.38-.13.62-.26.25-.72-1.72-2.13-3.88-3.37-6.93-3.36zm10.54 7.42c-2.12.07-4.01.62-5.57 2.04-.15.14-.46.19-.38.49.07.26.35.26.56.32 2.64.73 4.76 2.2 6.38 4.4.54.73.55.73 1.12-.02 1.09-1.44 2.43-2.6 4.03-3.46.46-.25.44-.41.14-.76-1.65-1.97-3.8-2.88-6.27-3.01zm-20.41.01c-2 .1-3.87.57-5.41 1.95-.18.16-.52.25-.47.53.05.32.42.31.67.38 2.56.77 4.65 2.22 6.28 4.33.55.71.56.71 1.12-.02 1.01-1.31 2.24-2.37 3.65-3.23.81-.49.83-.67.15-1.38-1.64-1.7-3.65-2.51-5.99-2.58zm21.96 21.2c-.22 0-.24.19-.33.29-.92 1.03-1.79 2.12-2.96 2.87-.4.26-.22.41 0 .61 1.06.88 2.12 1.77 2.94 2.9.16.22.34.31.53.04.84-1.21 1.91-2.19 3.1-3.05.26-.18.25-.32-.03-.49-1.2-.73-2.1-1.78-2.97-2.85-.09-.12-.2-.22-.29-.32zm-20.34.04c-.15-.02-.2.09-.28.19-.88 1.14-1.85 2.18-3.06 2.98-.32.21-.21.34 0 .5 1.14.88 2.12 1.91 3.04 3.01.23.27.44.22.6-.05.71-1.19 1.72-2.08 2.85-2.85.24-.16.42-.33 0-.6-1.13-.73-2.01-1.73-2.79-2.82-.1-.14-.18-.3-.36-.37zm23.9 23.87c-1.31-.97-2.46-2.03-3.37-3.34-.15-.22-.29-.21-.46.03-.93 1.28-2.03 2.4-3.33 3.33 1.19.77 2.1 1.76 2.97 2.79.57.68.55.66 1.12-.03.86-1.04 1.72-2.09 3.06-2.78zm-20.39.04c-1.13-.76-1.96-1.69-2.81-2.62-.25-.27-.34-.8-.7-.82-.36-.01-.47.52-.71.79-.87.96-1.81 1.84-2.9 2.68.51.19.83.48 1.14.76.75.67 1.44 1.4 2.06 2.2.19.25.41.54.68.1.8-1.29 1.95-2.2 3.24-3.09z" fill="#fff"/></svg>